<?xml version="1.0" encoding="UTF-8"?>
<svg xmlns="http://www.w3.org/2000/svg" viewBox="0 0 1200 680" fill="none">
  <rect width="1200" height="680" rx="16" fill="#f9f9ff"/>
  <rect x="48" y="48" width="1104" height="584" rx="12" fill="#ffffff" stroke="#d8e3fb" stroke-width="2"/>
  <text x="600" y="108" text-anchor="middle" fill="#111c2d" font-family="Georgia, serif" font-size="32" font-weight="700">7 AI Side Hustle Paths - Pick Your Starting Point</text>
  <text x="600" y="142" text-anchor="middle" fill="#434750" font-family="system-ui, sans-serif" font-size="16">Use AI as a multiplier on skills you already have</text>
  <g font-family="system-ui, sans-serif" font-size="14">
    <rect x="72" y="180" width="250" height="88" rx="8" fill="#e7eeff" stroke="#335d94"/>
    <text x="197" y="214" text-anchor="middle" fill="#111c2d" font-weight="600">1. AI Writing</text>
    <text x="197" y="238" text-anchor="middle" fill="#434750">$300-1,500/day - Lowest barrier</text>
    <rect x="352" y="180" width="250" height="88" rx="8" fill="#e7eeff" stroke="#335d94"/>
    <text x="477" y="214" text-anchor="middle" fill="#111c2d" font-weight="600">2. Short-Form Video</text>
    <text x="477" y="238" text-anchor="middle" fill="#434750">$500-2,000/day - High demand</text>
    <rect x="632" y="180" width="250" height="88" rx="8" fill="#e7eeff" stroke="#335d94"/>
    <text x="757" y="214" text-anchor="middle" fill="#111c2d" font-weight="600">3. AI Setup Services</text>
    <text x="757" y="238" text-anchor="middle" fill="#434750">$500-1,500/day - Agent deploy</text>
    <rect x="912" y="180" width="216" height="88" rx="8" fill="#e7eeff" stroke="#335d94"/>
    <text x="1020" y="214" text-anchor="middle" fill="#111c2d" font-weight="600">4. Automation</text>
    <text x="1020" y="238" text-anchor="middle" fill="#434750">$800-2,000/day</text>
    <rect x="212" y="310" width="250" height="88" rx="8" fill="#e7eeff" stroke="#335d94"/>
    <text x="337" y="344" text-anchor="middle" fill="#111c2d" font-weight="600">5. AI Design</text>
    <text x="337" y="368" text-anchor="middle" fill="#434750">$500-1,500/day - Visual work</text>
    <rect x="492" y="310" width="250" height="88" rx="8" fill="#e7eeff" stroke="#335d94"/>
    <text x="617" y="344" text-anchor="middle" fill="#111c2d" font-weight="600">6. AI Training</text>
    <text x="617" y="368" text-anchor="middle" fill="#434750">$1,000-5,000/day - Teach others</text>
    <rect x="772" y="310" width="250" height="88" rx="8" fill="#e7eeff" stroke="#335d94"/>
    <text x="897" y="344" text-anchor="middle" fill="#111c2d" font-weight="600">7. Translation</text>
    <text x="897" y="368" text-anchor="middle" fill="#434750">$500-1,500/day - Cross-border</text>
  </g>
  <rect x="200" y="440" width="800" height="140" rx="10" fill="#f0f3ff" stroke="#c3c6d1"/>
  <text x="600" y="478" text-anchor="middle" fill="#335d94" font-family="system-ui, sans-serif" font-size="15" font-weight="700">Quick decision guide</text>
  <text x="600" y="512" text-anchor="middle" fill="#434750" font-family="system-ui, sans-serif" font-size="14">Can you write clearly? - Path 1</text>
  <text x="600" y="538" text-anchor="middle" fill="#434750" font-family="system-ui, sans-serif" font-size="14">Comfortable on camera / video? - Path 2</text>
  <text x="600" y="564" text-anchor="middle" fill="#434750" font-family="system-ui, sans-serif" font-size="14">Technical or willing to learn setup? - Paths 3-4</text>
</svg>
